
Complete name                    : Kick-Ass.2010.avi
Format                           : AVI
File size                        : 1.37 GiB
Duration                         : 1h 52mn
Overall bit rate                 : 1 743 Kbps

Video

Codec ID/Hint                    : XviD
Duration                         : 1h 52mn
Bit rate                         : 1 284 Kbps
Width                            : 720 pixels
Height                           : 428 pixels
Display aspect ratio             : 2.35:1
Stream size                      : 1.01 GiB (74%)
Writing library                  : XviD 1.1.2 (UTC 2006-11-01)

Audio

Format                           : AC-3
Duration                         : 1h 52mn
Bit rate                         : 448 Kbps
Channel(s)                       : 6 channels
Channel positions                : Front: L C R, Side: L R, LFE
Sampling rate                    : 48.0 KHz
Bit depth                        : 16 bits
Stream size                      : 361 MiB (26%)


Text #1
Language                         : Danish

Text #2
Language                         : Finnish

Text #3
Language                         : Norwegian

Text #4
Language                         : Swedish